<svg xmlns="http://www.w3.org/2000/svg" height="444.507" width="902.907"><path d="M331.696 437.84V131.404h564.55V437.84h-564.55" fill="#fff"/><path d="M902.913 124.737H325.03v319.77h577.884v-319.77zm-13.333 13.335v293.101H338.363V138.072H889.58" fill="#3268b7"/><path d="M577.884 319.765H0V-.004h577.884v319.77" fill="#3268b7"/><path d="M428.315 79.193h-58.42l3.6-10.072h54.82v10.072M272.593 69.121l54.239-.013 3.547 10.099c.026-.014-57.772.013-57.772 0 0-.014-.026-10.086-.014-10.086M229.517 69.121c8.934.859 16.703 4.039 23.319 10.086 0 0-98.299.013-98.299 0V69.12h74.98M77.381 69.121h68.3v10.066h-68.3V69.12M428.315 98.09h-65.1s3.546-10.014 3.521-10.022h61.579v10.023M337.085 98.11h-64.492V88.062h60.958l3.534 10.046M260.5 88.063c1.296 3.306 2.836 6.137 2.836 10.028H154.549V88.063H260.5M77.381 88.063h68.3V98.09h-68.3V88.063M356.545 117.039l3.574-10.079 48.89.019v10.034l-52.464.026M340.219 106.96l3.574 10.079h-51.972V106.96h48.398M264.19 106.96c0 3.456-.426 7.056-1.438 10.079h-29.79V106.96h31.229M96.429 107.012h29.351v10.027H96.43v-10.027M174.308 106.96h29.3v10.079h-29.3V106.96M320.681 127.91l.014 7.631H291.82v-10.016h55.014l3.418 9.343c.014.007 3.288-9.368 3.288-9.343h55.455v10.016h-28.73l-.026-7.632-2.655 7.632-54.25-.013-2.654-7.619M174.308 125.525h84.121v-.012c-1.826 3.36-5.178 7.439-8.338 10.028 0 0-75.783.02-75.783 0v-10.016M96.429 125.513h29.351v10.028H96.43v-10.028M380.265 144.424h28.731v10.021h-28.73v-10.021M320.681 144.424h-28.86v10.021c-.014-.013 28.874 0 28.874 0 0-.013.038-10.021-.014-10.021M374.465 144.424c-.129-.02-3.366 10.008-3.494 10.021l-40.928.014c-.027-.014-3.6-10.055-3.6-10.035h48.022M174.308 144.424h75.64c3.457 2.875 6.577 6.428 9.012 10.021.143-.013-84.652 0-84.652 0v-10.021M125.78 154.445v-10.021H96.467s.013 10.008 0 10.008l29.313.013M380.265 163.32h28.731v10.023h-28.73V163.32M291.821 163.32h28.86v10.023h-28.86V163.32M364.25 173.388c0-.045 3.534-10.081 3.586-10.068h-34.777c-.064-.013 3.561 10.023 3.561 10.023s27.616.096 27.63.045M174.308 173.343v-10.036h29.741s.026 10.036 0 10.036-29.741-.007-29.741 0M263.141 163.307c1.438 3.03 1.58 6.636 1.866 10.081h-31.503v-10.081h29.637M96.467 163.307h29.313v10.029H96.467v-10.03M380.265 181.83h48.05v10.034h-48.05v-10.035M272.593 181.83h48.088v10.034h-48.088v-10.035M357.776 191.864h-14.67l-3.522-10.035h21.584l-3.392 10.035M77.381 181.83v10.026h68.26c.014.013-.038-10.027 0-10.027h-68.26M263.764 181.83c-.725 3.313-1.375 7.333-3.795 10.034l-.906-.008H154.549v-10.027h109.215M351.121 210.78h-1.346l-3.419-10.055h8.285l-3.52 10.055M380.265 200.725h48.05v10.082h-48.05v-10.082M154.537 210.78v-10.041l98.88.013c-6.616 6.33-15.704 9.899-25.48 10.055l-73.388-.027M272.593 200.725h48.088v10.082h-48.088v-10.082M145.641 200.77s-.038 10.01 0 10.01c.014 0-68.233.04-68.26.013-.025-.013.014-10.054 0-10.054-.025 0 68.222.057 68.26.032M888.97 429.288h-424V139.956h424v289.332" fill="#fff"/><path d="M515.15 236.343v18.346H528c2.295 0 4.081-.404 5.36-1.213 2.319-1.492 3.477-4.357 3.477-8.59 0-3.577-1.124-6.038-3.37-7.377-1.256-.744-3.019-1.134-5.29-1.166zm0-26.563v15.172h12.863c2.298 0 4.164-.567 5.598-1.703 1.432-1.136 2.149-3.15 2.149-6.046 0-3.207-.948-5.32-2.843-6.35-1.634-.716-3.72-1.073-6.254-1.073zm28.738-4.621c1.619 2.926 2.428 6.426 2.428 10.504 0 4.201-.816 7.578-2.45 10.13-.914 1.432-2.26 2.74-4.037 3.923 2.7 1.276 4.739 3.299 6.114 6.067 1.374 2.77 2.061 6.133 2.061 10.084 0 4.077-.785 7.734-2.356 10.97-1 2.15-2.25 3.954-3.748 5.418a13.272 13.272 0 01-5.981 3.453c-2.296.621-4.788.935-7.478.935h-23.848v-68.814h25.578c6.453.126 11.025 2.568 13.717 7.33M566.89 215.757v30.67c0 2.896.262 5.072.787 6.536.928 2.584 2.751 3.874 5.466 3.874 3.478 0 5.86-1.836 7.146-5.508.667-1.992 1-4.621 1-7.889v-27.683h10.378v50.886h-9.947v-7.191c-.095.156-.335.623-.716 1.401a9 9 0 01-1.36 2.052c-1.6 1.87-3.145 3.147-4.637 3.828-1.492.686-3.24 1.03-5.246 1.03-5.777 0-9.668-2.71-11.673-8.123-1.121-2.99-1.681-7.393-1.681-13.213v-30.67h10.484M609.548 250.395c.216 2.368.687 4.046 1.408 5.042 1.275 1.774 3.63 2.662 7.07 2.662 2.02 0 3.626-.388 4.817-1.167 1.19-.779 1.786-1.945 1.786-3.503 0-1.492-.48-2.628-1.438-3.406-.96-.779-4.528-2.118-10.707-4.016-4.447-1.432-7.58-3.222-9.4-5.37-1.819-2.114-2.728-5.164-2.728-9.148 0-4.701 1.421-8.737 4.264-12.114 2.843-3.379 6.844-5.066 12.001-5.066 4.894 0 8.882 1.268 11.963 3.804 3.083 2.538 4.852 6.918 5.31 13.142h-10.235c-.143-1.711-.516-3.066-1.116-4.06-1.128-1.806-3.048-2.708-5.76-2.708-2.234 0-3.823.45-4.771 1.353-.948.901-1.423 1.961-1.423 3.175 0 1.524.504 2.63 1.512 3.313 1.008.719 4.57 1.947 10.686 3.69 4.076 1.245 7.132 3.127 9.168 5.647 2.01 2.554 3.016 5.743 3.016 9.571 0 5.041-1.446 9.159-4.336 12.347-2.891 3.19-7.358 4.786-13.402 4.786-6.165 0-10.716-1.69-13.654-5.065-2.94-3.377-4.408-7.68-4.408-12.91h10.377M642.653 215.757h10.376v50.886h-10.376zm10.376-6.07h-10.376v-12.279h10.376v12.279M694.501 218.673c2.563 2.756 3.844 7.323 3.844 13.702v34.268h-10.484v-30.954c0-2.674-.274-4.729-.821-6.161-.999-2.615-2.9-3.921-5.703-3.921-3.445 0-5.809 1.913-7.092 5.741-.665 2.024-.998 4.607-.998 7.75v27.545h-10.234v-50.795h9.91v7.425c1.31-2.614 2.55-4.498 3.718-5.649 2.098-2.055 4.756-3.083 7.974-3.083 4.028 0 7.324 1.378 9.886 4.132M718.055 228.28c-1.447 1.939-2.355 4.563-2.727 7.876h17.63c-.186-3.532-1.094-6.212-2.725-8.04-1.632-1.828-3.654-2.744-6.069-2.744-2.628 0-4.664.97-6.11 2.908zm15.308-11.495c2.73 1.592 4.986 4.1 6.765 7.53 1.603 3.022 2.641 6.528 3.119 10.52.274 2.336.386 5.704.336 10.1h-28.506c.159 5.104 1.523 8.681 4.094 10.736 1.562 1.276 3.442 1.914 5.641 1.914 2.33 0 4.225-.778 5.683-2.333.794-.841 1.497-2.008 2.105-3.503h10.448c-.275 3.019-1.539 6.086-3.793 9.198-3.506 4.948-8.414 7.422-14.726 7.422-5.208 0-9.802-2.086-13.784-6.261-3.982-4.173-5.973-10.965-5.973-20.372 0-8.815 1.797-15.575 5.392-20.279 3.593-4.702 8.259-7.054 13.995-7.054 3.406 0 6.476.794 9.204 2.382M756.693 250.395c.216 2.368.686 4.046 1.407 5.042 1.275 1.774 3.632 2.662 7.07 2.662 2.022 0 3.627-.388 4.817-1.167 1.192-.779 1.786-1.945 1.786-3.503 0-1.492-.478-2.628-1.438-3.406-.96-.779-4.528-2.118-10.706-4.016-4.446-1.432-7.581-3.222-9.4-5.37-1.818-2.114-2.729-5.164-2.729-9.148 0-4.701 1.421-8.737 4.264-12.114 2.843-3.379 6.844-5.066 12.001-5.066 4.894 0 8.882 1.268 11.964 3.804 3.082 2.538 4.852 6.918 5.308 13.142h-10.233c-.144-1.711-.516-3.066-1.116-4.06-1.13-1.806-3.05-2.708-5.761-2.708-2.232 0-3.823.45-4.771 1.353-.948.901-1.421 1.961-1.421 3.175 0 1.524.504 2.63 1.512 3.313 1.006.719 4.568 1.947 10.684 3.69 4.077 1.245 7.133 3.127 9.168 5.647 2.01 2.554 3.016 5.743 3.016 9.571 0 5.041-1.446 9.159-4.336 12.347-2.891 3.19-7.358 4.786-13.402 4.786-6.165 0-10.716-1.69-13.654-5.065-2.939-3.377-4.408-7.68-4.408-12.91h10.378M797.59 250.395c.215 2.368.686 4.046 1.407 5.042 1.275 1.774 3.632 2.662 7.071 2.662 2.02 0 3.627-.388 4.816-1.167 1.192-.779 1.787-1.945 1.787-3.503 0-1.492-.479-2.628-1.439-3.406-.96-.779-4.528-2.118-10.705-4.016-4.447-1.432-7.582-3.222-9.4-5.37-1.82-2.114-2.73-5.164-2.73-9.148 0-4.701 1.422-8.737 4.264-12.114 2.843-3.379 6.844-5.066 12.002-5.066 4.893 0 8.881 1.268 11.964 3.804 3.081 2.538 4.85 6.918 5.308 13.142H811.7c-.143-1.711-.515-3.066-1.116-4.06-1.128-1.806-3.048-2.708-5.76-2.708-2.233 0-3.823.45-4.77 1.353-.949.901-1.422 1.961-1.422 3.175 0 1.524.504 2.63 1.51 3.313 1.009.719 4.57 1.947 10.686 3.69 4.077 1.245 7.133 3.127 9.168 5.647 2.01 2.554 3.016 5.743 3.016 9.571 0 5.041-1.445 9.159-4.336 12.347-2.89 3.19-7.357 4.786-13.401 4.786-6.166 0-10.716-1.69-13.655-5.065-2.939-3.377-4.408-7.68-4.408-12.91h10.377M531.505 326.799c-1.401-1.524-3.364-2.287-5.886-2.287h-9.967v20.261h9.967c2.522 0 4.485-.826 5.886-2.474 1.4-1.651 2.1-4.266 2.1-7.844 0-3.578-.7-6.13-2.1-7.656zm8.44 24.789c-3.097 3.361-7.522 5.041-13.272 5.041h-11.021v24.743h-10.987v-68.813h22.726c5.238 0 9.414 1.776 12.529 5.324 3.116 3.546 4.673 9.04 4.673 16.478 0 8.123-1.549 13.864-4.648 17.227M574.395 356.63c-.655.531-1.316.958-1.983 1.283-.668.328-1.584.631-2.75.912l-2.329.56c-2.184.498-3.75 1.104-4.702 1.82-1.612 1.214-2.419 3.096-2.419 5.649 0 2.272.492 3.914 1.477 4.923.984 1.014 2.182 1.519 3.591 1.519 2.237 0 4.297-.841 6.18-2.521 1.884-1.68 2.861-4.744 2.935-9.198zm-6.256-6.209c1.904-.31 3.266-.7 4.086-1.166 1.47-.81 2.206-2.071 2.206-3.782 0-2.086-.564-3.526-1.692-4.317-1.128-.795-2.784-1.194-4.968-1.194-2.451 0-4.187.78-5.204 2.337-.73 1.15-1.214 2.705-1.456 4.666h-9.875c.216-4.45 1.179-8.106 2.885-10.97 2.716-4.48 7.38-6.722 13.992-6.722 4.304 0 8.126 1.107 11.468 3.315 3.34 2.21 5.011 6.38 5.011 12.51v23.344c0 1.617.025 3.578.073 5.88.072 1.745.275 2.927.61 3.55.336.623.838 1.135 1.509 1.539v1.96h-11.132a18.221 18.221 0 01-.645-2.892 44.083 44.083 0 01-.288-3.082c-1.42 1.992-3.059 3.688-4.912 5.09-2.215 1.648-4.72 2.473-7.512 2.473-3.564 0-6.507-1.315-8.83-3.945-2.325-2.63-3.486-6.356-3.486-11.18 0-6.258 1.869-10.783 5.606-13.586 2.051-1.524 5.064-2.614 9.044-3.268l3.51-.56M615.275 329.296c.132.016.424.039.88.07V343a21.227 21.227 0 00-2.946-.234c-4.117 0-6.881 1.742-8.293 5.23-.79 1.96-1.185 4.978-1.185 9.057v24.32h-10.306v-50.885h9.768v8.87c1.579-3.392 2.955-5.712 4.128-6.957 1.915-2.083 4.404-3.127 7.47-3.127.19 0 .352.007.484.023M618.13 340.432v-9.477h5.458v-14.193h10.125v14.193h6.356v9.477h-6.356v26.888c0 2.085.204 3.385.611 3.899.407.514 1.65.77 3.735.77a21.846 21.846 0 002.01-.094v9.945l-4.848.232c-4.834.219-8.137-.87-9.91-3.268-1.148-1.524-1.723-3.875-1.723-7.05v-31.322h-5.457M678.2 333.405c2.563 2.754 3.844 7.32 3.844 13.702v34.265H671.56v-30.95c0-2.678-.273-4.733-.82-6.162-.999-2.615-2.9-3.923-5.704-3.923-3.445 0-5.81 1.915-7.092 5.743-.665 2.024-.999 4.607-.999 7.75v27.542h-10.233V330.58h9.91v7.421c1.31-2.612 2.551-4.494 3.72-5.647 2.095-2.053 4.754-3.08 7.971-3.08 4.03 0 7.326 1.376 9.887 4.131M701.752 343.012c-1.447 1.937-2.353 4.562-2.725 7.875h17.629c-.185-3.53-1.093-6.211-2.725-8.04-1.631-1.83-3.655-2.743-6.07-2.743-2.626 0-4.664.968-6.109 2.908zm15.31-11.495c2.73 1.591 4.985 4.099 6.763 7.53 1.603 3.022 2.643 6.527 3.119 10.517.275 2.339.387 5.707.336 10.098h-28.505c.158 5.109 1.524 8.686 4.093 10.74 1.563 1.277 3.443 1.915 5.643 1.915 2.33 0 4.225-.779 5.682-2.336.794-.838 1.498-2.008 2.106-3.5h10.448c-.275 3.018-1.54 6.083-3.794 9.195-3.506 4.95-8.414 7.425-14.725 7.425-5.208 0-9.804-2.09-13.785-6.261-3.982-4.175-5.972-10.966-5.972-20.375 0-8.811 1.796-15.573 5.39-20.276 3.595-4.702 8.26-7.057 13.996-7.057 3.406 0 6.475.797 9.204 2.385M754.197 329.296c.132.016.426.039.882.07V343a21.29 21.29 0 00-2.946-.234c-4.117 0-6.882 1.742-8.294 5.23-.79 1.96-1.186 4.978-1.186 9.057v24.32H732.35v-50.885h9.767v8.87c1.579-3.392 2.956-5.712 4.13-6.957 1.913-2.083 4.402-3.127 7.467-3.127.192 0 .354.007.484.023" fill="#231f20"/></svg>