<?xml version="1.0" encoding="UTF-8"?>
<svg xmlns="http://www.w3.org/2000/svg" xmlns:xlink="http://www.w3.org/1999/xlink" width="3380pt" height="768pt" viewBox="0 0 3380 768" version="1.1">
<defs>
<linearGradient id="linear0" gradientUnits="userSpaceOnUse" x1="1391.7" y1="728.91" x2="1391.7" y2="293.06" gradientTransform="matrix(0.749945,0,0,0.75,-0.372197,-0.3375)">
<stop offset="0" style="stop-color:rgb(3.529412%,43.529412%,82.352941%);stop-opacity:1;"/>
<stop offset="1" style="stop-color:rgb(5.490196%,55.686275%,91.372549%);stop-opacity:1;"/>
</linearGradient>
<linearGradient id="linear1" gradientUnits="userSpaceOnUse" x1="1678.1" y1="739.55" x2="1680.3" y2="410.58" gradientTransform="matrix(0.749945,0,0,0.75,0,0)">
<stop offset="0" style="stop-color:rgb(3.529412%,43.529412%,82.352941%);stop-opacity:1;"/>
<stop offset="1" style="stop-color:rgb(5.490196%,55.686275%,91.372549%);stop-opacity:1;"/>
</linearGradient>
<linearGradient id="linear2" gradientUnits="userSpaceOnUse" x1="2006.5" y1="735.19" x2="2006.5" y2="411.59" gradientTransform="matrix(0.749945,0,0,0.75,0,0)">
<stop offset="0" style="stop-color:rgb(3.529412%,43.529412%,82.352941%);stop-opacity:1;"/>
<stop offset="1" style="stop-color:rgb(5.490196%,55.686275%,91.372549%);stop-opacity:1;"/>
</linearGradient>
<linearGradient id="linear3" gradientUnits="userSpaceOnUse" x1="2429.5" y1="728.3" x2="2429.5" y2="414.01" gradientTransform="matrix(0.749945,0,0,0.75,0,0)">
<stop offset="0" style="stop-color:rgb(3.529412%,43.529412%,82.352941%);stop-opacity:1;"/>
<stop offset="1" style="stop-color:rgb(5.490196%,55.686275%,91.372549%);stop-opacity:1;"/>
</linearGradient>
<linearGradient id="linear4" gradientUnits="userSpaceOnUse" x1="2894.1" y1="728.59" x2="2894.1" y2="293.71" gradientTransform="matrix(0.749945,0,0,0.75,-0.372197,-0.3375)">
<stop offset="0" style="stop-color:rgb(3.529412%,43.529412%,82.352941%);stop-opacity:1;"/>
<stop offset="1" style="stop-color:rgb(5.490196%,55.686275%,91.372549%);stop-opacity:1;"/>
</linearGradient>
<linearGradient id="linear5" gradientUnits="userSpaceOnUse" x1="3135.1" y1="728.3" x2="3135.1" y2="293.1" gradientTransform="matrix(0.749945,0,0,0.75,0,0)">
<stop offset="0" style="stop-color:rgb(3.529412%,43.529412%,82.352941%);stop-opacity:1;"/>
<stop offset="1" style="stop-color:rgb(5.490196%,55.686275%,91.372549%);stop-opacity:1;"/>
</linearGradient>
<linearGradient id="linear6" gradientUnits="userSpaceOnUse" x1="3319.3" y1="737.36" x2="3319.3" y2="413.52" gradientTransform="matrix(0.749945,0,0,0.75,0,0)">
<stop offset="0" style="stop-color:rgb(3.529412%,43.529412%,82.352941%);stop-opacity:1;"/>
<stop offset="1" style="stop-color:rgb(5.490196%,55.686275%,91.372549%);stop-opacity:1;"/>
</linearGradient>
<linearGradient id="linear7" gradientUnits="userSpaceOnUse" x1="3643.9" y1="728.66" x2="3643.9" y2="422.86" gradientTransform="matrix(0.749945,0,0,0.75,-0.372197,-0.3375)">
<stop offset="0" style="stop-color:rgb(3.529412%,43.529412%,82.352941%);stop-opacity:1;"/>
<stop offset="1" style="stop-color:rgb(5.490196%,55.686275%,91.372549%);stop-opacity:1;"/>
</linearGradient>
<linearGradient id="linear8" gradientUnits="userSpaceOnUse" x1="4142.3" y1="737.34" x2="4142.3" y2="413.59" gradientTransform="matrix(0.749945,0,0,0.75,0,0)">
<stop offset="0" style="stop-color:rgb(3.529412%,43.529412%,82.352941%);stop-opacity:1;"/>
<stop offset="1" style="stop-color:rgb(5.490196%,55.686275%,91.372549%);stop-opacity:1;"/>
</linearGradient>
<linearGradient id="linear9" gradientUnits="userSpaceOnUse" x1="4382" y1="728.37" x2="4382" y2="413.31" gradientTransform="matrix(0.749945,0,0,0.75,0,0)">
<stop offset="0" style="stop-color:rgb(3.529412%,43.529412%,82.352941%);stop-opacity:1;"/>
<stop offset="1" style="stop-color:rgb(5.490196%,55.686275%,91.372549%);stop-opacity:1;"/>
</linearGradient>
<linearGradient id="linear10" gradientUnits="userSpaceOnUse" x1="511.61" y1="1026.9" x2="511.61" y2="-0.32419" gradientTransform="matrix(0.749945,0,0,0.75,0,0)">
<stop offset="0" style="stop-color:rgb(3.529412%,43.529412%,82.352941%);stop-opacity:1;"/>
<stop offset="1" style="stop-color:rgb(5.490196%,55.686275%,91.372549%);stop-opacity:1;"/>
</linearGradient>
<linearGradient id="linear11" gradientUnits="userSpaceOnUse" x1="412.95" y1="648.08" x2="412.86" y2="376.45" gradientTransform="matrix(0.749945,0,0,0.75,0,0)">
<stop offset="0" style="stop-color:rgb(3.529412%,43.529412%,82.352941%);stop-opacity:1;"/>
<stop offset="1" style="stop-color:rgb(5.490196%,55.686275%,91.372549%);stop-opacity:1;"/>
</linearGradient>
</defs>
<g id="surface1">
<path style=" stroke:none;fill-rule:nonzero;fill:url(#linear0);" d="M 1096.796875 546.335938 L 1019.550781 546.335938 L 1019.550781 280.988281 L 925.058594 280.988281 L 925.058594 219.488281 L 1192.039062 219.488281 L 1192.039062 280.988281 L 1096.796875 280.988281 Z M 1096.796875 546.335938 "/>
<path style=" stroke:none;fill-rule:nonzero;fill:url(#linear1);" d="M 1258.40625 554.699219 C 1238.445312 554.699219 1201.3125 550.949219 1176.964844 525.644531 C 1157.171875 504.996094 1147.144531 474.816406 1147.144531 435.945312 C 1147.144531 385.925781 1163.320312 349.320312 1195.214844 327.195312 C 1214.136719 314.585938 1236.574219 307.921875 1260.152344 307.921875 C 1284.902344 307.921875 1329.898438 315.210938 1353.824219 364.042969 C 1366.300781 391.546875 1368.671875 421.941406 1367.261719 451.71875 L 1218.324219 451.71875 C 1218.898438 474.691406 1223.414062 501.71875 1259.261719 502.46875 C 1278.8125 502.957031 1289.859375 493.199219 1294.578125 471.667969 L 1362.070312 471.667969 L 1361.683594 476.363281 C 1360.933594 485.429688 1359.15625 506.65625 1339.378906 527.398438 C 1322.953125 544.777344 1293.414062 554.730469 1258.382812 554.730469 Z M 1292.273438 402.148438 C 1291.433594 382.484375 1284.4375 361.078125 1257.972656 361.078125 C 1229.375 361.078125 1222.445312 386.992188 1220.851562 402.148438 L 1292.28125 402.148438 Z M 1292.273438 402.148438 "/>
<path style=" stroke:none;fill-rule:nonzero;fill:url(#linear2);" d="M 1476.640625 551.625 C 1425.890625 553.386719 1398.121094 521.707031 1397.523438 480.839844 C 1397.523438 462.136719 1403.964844 427.761719 1447.121094 407.8125 C 1472.375 399.285156 1481.117188 397.183594 1532.617188 395.113281 L 1533.308594 441.703125 C 1459.433594 440.085938 1461.726562 480.421875 1480.347656 495.75 C 1497.351562 509.746094 1535.875 500.738281 1533.191406 441.585938 L 1531.691406 395.085938 C 1531.59375 383.625 1531.015625 377.835938 1528.847656 371.296875 C 1523.660156 356.519531 1507.167969 355.769531 1503.914062 355.769531 C 1495.191406 355.769531 1487.316406 359.671875 1482.839844 366.210938 C 1478.757812 372.523438 1478.757812 378.644531 1478.757812 383.574219 L 1478.757812 387.898438 L 1406.121094 387.898438 L 1406.285156 383.398438 C 1406.695312 372.195312 1407.671875 345.953125 1433.175781 327.667969 C 1450.613281 315.15625 1474.117188 308.8125 1503.035156 308.8125 C 1524.152344 308.8125 1562.949219 312.71875 1585.527344 338.925781 C 1601.984375 358.761719 1601.984375 387.039062 1601.984375 396.328125 L 1602.433594 485.730469 C 1602.433594 506.730469 1604.128906 524.894531 1607.613281 541.175781 L 1608.738281 546.425781 L 1541.535156 546.691406 C 1540.046875 544.441406 1538.691406 524.132812 1538.691406 524.132812 L 1538.195312 524.136719 C 1537.296875 528.753906 1512.582031 550.5 1484.957031 551.664062 "/>
<path style=" stroke:none;fill-rule:nonzero;fill:url(#linear3);" d="M 1935.605469 546.300781 L 1935.605469 411.226562 C 1935.605469 383.714844 1929.980469 365.386719 1902.535156 365.386719 C 1869.445312 365.386719 1866.820312 393.644531 1866.820312 430.589844 L 1866.820312 546.238281 L 1792.578125 546.238281 L 1792.578125 409.890625 C 1792.578125 388.351562 1790.085938 365.371094 1760.382812 365.371094 C 1723.785156 365.371094 1723.785156 396.328125 1723.785156 411.210938 L 1723.785156 546.285156 L 1649.539062 546.285156 L 1649.539062 361.484375 C 1649.539062 349.125 1648.851562 335.984375 1647.359375 320.078125 L 1646.914062 315.34375 L 1718.609375 315.34375 L 1720.273438 336.945312 C 1730.472656 325.566406 1749.71875 310.5 1785.453125 310.5 C 1808.890625 310.5 1839.246094 317.121094 1855.761719 347.332031 C 1871.222656 322.835938 1894.472656 310.949219 1926.71875 310.949219 C 1972.503906 310.949219 1992.019531 337.449219 1998.289062 348.839844 C 2009.957031 367.851562 2009.882812 393.839844 2009.828125 412.753906 L 2009.828125 546.253906 L 1935.585938 546.253906 Z M 1935.605469 546.300781 "/>
<path style=" stroke:none;fill-rule:nonzero;fill:url(#linear4);" d="M 2171.46875 501.5625 L 2269.710938 219.9375 L 2307.957031 219.9375 L 2189.464844 546.335938 L 2151.21875 546.335938 L 2031.976562 219.9375 L 2072.472656 219.9375 Z M 2171.46875 501.5625 "/>
<path style=" stroke:none;fill-rule:nonzero;fill:url(#linear5);" d="M 2335.328125 546.300781 L 2335.328125 316.726562 L 2370.394531 316.726562 L 2370.394531 546.300781 Z M 2333.121094 261.523438 L 2333.121094 219.863281 L 2372.59375 219.863281 L 2372.59375 261.53125 L 2333.121094 261.53125 Z M 2333.121094 261.523438 "/>
<path style=" stroke:none;fill-rule:nonzero;fill:url(#linear6);" d="M 2517.5625 552.976562 C 2447.691406 552.976562 2416.394531 492 2416.394531 431.550781 C 2416.394531 373.050781 2448.597656 310.125 2519.289062 310.125 C 2587.992188 310.738281 2624.429688 356.59375 2624.429688 441.976562 L 2453.820312 441.976562 C 2455.183594 468.570312 2465.628906 519.976562 2525.902344 519.976562 C 2554.65625 519.976562 2579.148438 499.65625 2585.484375 470.574219 L 2586.234375 467.160156 L 2623.042969 467.160156 C 2605.285156 544.410156 2557.167969 551.835938 2517.527344 552.808594 Z M 2586.753906 409.199219 C 2582.195312 367.078125 2557.972656 343.042969 2519.761719 343.042969 C 2478.453125 343.042969 2459.375 377.664062 2455.078125 409.199219 Z M 2586.753906 409.199219 "/>
<path style=" stroke:none;fill-rule:nonzero;fill:url(#linear7);" d="M 2801.421875 316.761719 L 2838.167969 316.761719 L 2901.164062 493.613281 L 2961.910156 316.761719 L 3000.90625 316.761719 L 2915.414062 546.335938 L 2883.914062 546.335938 L 2818.667969 363.039062 L 2751.925781 546.335938 L 2719.675781 546.335938 L 2634.933594 316.761719 L 2673.179688 316.761719 L 2736.925781 495.5625 Z M 2801.421875 316.761719 "/>
<path style=" stroke:none;fill-rule:nonzero;fill:url(#linear8);" d="M 3110.769531 552.976562 C 3040.898438 552.976562 3009.601562 492 3009.601562 431.550781 C 3009.601562 373.050781 3041.804688 310.125 3112.496094 310.125 C 3184.910156 310.210938 3218.386719 363.226562 3217.636719 441.976562 L 3047.023438 441.976562 C 3048.390625 468.570312 3058.835938 519.976562 3119.109375 519.976562 C 3148.050781 519.273438 3171.222656 503.632812 3179.441406 467.160156 L 3216.25 467.160156 C 3198.222656 542.835938 3149.847656 552.136719 3110.730469 552.808594 Z M 3179.960938 409.199219 C 3175.398438 367.078125 3151.175781 343.042969 3112.96875 343.042969 C 3071.660156 343.042969 3052.582031 377.664062 3048.285156 409.199219 Z M 3179.960938 409.199219 "/>
<path style=" stroke:none;fill-rule:nonzero;fill:url(#linear9);" d="M 3267.507812 546.300781 L 3267.507812 370.800781 C 3267.8125 353.273438 3266.25 337.378906 3265.320312 321.324219 L 3265.046875 316.738281 L 3301.082031 316.738281 L 3301.945312 338.128906 C 3312.625 321.628906 3330.023438 310.890625 3348.675781 310.140625 C 3351.285156 310.003906 3353.925781 309.953125 3356.585938 309.953125 C 3362.886719 309.953125 3369.238281 310.265625 3375.378906 310.574219 L 3379.496094 310.777344 L 3379.585938 314.902344 L 3379.585938 345.136719 C 3318.160156 334.640625 3304.441406 374.738281 3303.691406 403.335938 L 3302.191406 546.285156 "/>
<path style=" stroke:none;fill-rule:nonzero;fill:url(#linear10);" d="M 687.699219 0 L 79.34375 0 C 35.207031 0.570312 -0.210938 36.15625 0 79.726562 L 0 688.273438 C -0.210938 732.015625 35.480469 767.675781 79.792969 768 L 688.148438 768 C 732.464844 767.675781 768.152344 732.015625 767.941406 688.273438 L 767.941406 79.726562 C 768.042969 58.640625 759.640625 38.382812 744.585938 23.425781 C 729.527344 8.46875 709.0625 0.0390625 687.699219 0 Z M 383.671875 701.550781 C 207.28125 700.207031 65.339844 558.085938 66.519531 384 C 65.339844 209.914062 207.28125 67.792969 383.671875 66.449219 C 560.148438 67.671875 702.226562 209.828125 701.046875 384 C 702.226562 558.171875 560.148438 700.328125 383.671875 701.550781 Z M 383.671875 701.550781 "/>
<path style=" stroke:none;fill-rule:nonzero;fill:url(#linear11);" d="M 678.101562 384 L 457.992188 282.226562 L 475.675781 347.4375 L 291.789062 347.4375 L 309.472656 282.226562 L 89.363281 384.074219 L 309.621094 485.851562 L 291.9375 420.636719 L 475.824219 420.636719 L 458.140625 485.851562 L 678.101562 384.074219 "/>
</g>
</svg>
