<?xml version="1.0" standalone="no"?>
<!DOCTYPE svg PUBLIC "-//W3C//DTD SVG 20010904//EN"
 "http://www.w3.org/TR/2001/REC-SVG-20010904/DTD/svg10.dtd">
<svg version="1.0" xmlns="http://www.w3.org/2000/svg"
 width="229.000000pt" height="229.000000pt" viewBox="0 0 229.000000 229.000000"
 preserveAspectRatio="xMidYMid meet">

<g transform="translate(0.000000,229.000000) scale(0.100000,-0.100000)"
fill="#FF0000" stroke="none">
<path d="M7 1783 c-4 -3 -7 -55 -7 -115 l0 -108 385 0 385 0 0 -95 0 -95 -125
0 -125 0 0 -320 0 -320 -135 0 -135 0 -2 318 -3 317 -122 3 -123 3 0 -426 0
-425 1145 0 1145 0 0 95 0 95 -173 0 c-187 0 -279 15 -368 60 -184 94 -265
348 -175 545 29 62 101 143 163 183 84 54 176 73 376 79 l177 6 0 103 0 104
-1138 0 c-626 0 -1142 -3 -1145 -7z m1531 -304 l3 -97 -169 -4 c-164 -3 -171
-4 -228 -33 -50 -26 -63 -38 -86 -84 -37 -73 -39 -163 -4 -236 47 -102 95
-121 319 -131 l167 -7 0 -89 0 -90 -207 4 c-247 5 -304 19 -404 96 -196 150
-213 449 -36 626 112 112 226 145 492 142 l150 -1 3 -96z"/>
<path d="M1983 1370 c-128 -26 -183 -95 -183 -232 0 -84 23 -141 76 -187 46
-41 83 -49 262 -57 l152 -7 0 247 0 246 -132 -1 c-73 -1 -152 -5 -175 -9z"/>
</g>
</svg>
